<svg width="30" height="30" viewBox="0 0 30 30" fill="none" xmlns="http://www.w3.org/2000/svg">
<path d="M7.5 6.25H22.5C25.2614 6.25 27.5 8.48858 27.5 11.25V17.5C27.5 20.2614 25.2614 22.5 22.5 22.5H12.5C9.73858 22.5 7.5 20.2614 7.5 17.5V6.25ZM7.5 6.25C7.5 4.86929 6.38071 3.75 5 3.75H2.5M7.5 11.25H26.875" stroke="#333333" stroke-width="1.875" stroke-linecap="round" stroke-linejoin="round"/>
<path d="M11.25 24.375C11.25 25.4105 10.4105 26.25 9.375 26.25C8.33947 26.25 7.5 25.4105 7.5 24.375C7.5 23.3395 8.33947 22.5 9.375 22.5C10.4105 22.5 11.25 23.3395 11.25 24.375Z" stroke="#333333" stroke-width="1.875"/>
<path d="M22.5 24.375C22.5 25.4105 21.6605 26.25 20.625 26.25C19.5895 26.25 18.75 25.4105 18.75 24.375C18.75 23.3395 19.5895 22.5 20.625 22.5C21.6605 22.5 22.5 23.3395 22.5 24.375Z" stroke="#333333" stroke-width="1.875"/>
</svg>
