<svg width="32" height="32" viewBox="0 0 32 32" fill="none" xmlns="http://www.w3.org/2000/svg">
<path d="M9.39458 19.319C9.53132 18.1868 9.99566 17.5529 10.8707 16.9031C12.1227 16.0231 13.6866 16.5209 13.6866 16.5209V13.5676C14.0668 13.5579 14.4472 13.5804 14.8232 13.635V17.4355C14.8232 17.4355 13.2598 16.9377 12.0078 17.8182C11.1332 18.4676 10.668 19.1019 10.5317 20.2341C10.5274 20.8489 10.6428 21.6525 11.1741 22.3473C11.0427 22.28 10.9088 22.2032 10.7724 22.1171C9.60207 21.3312 9.38889 20.1522 9.39458 19.319ZM21.2808 8.10704C20.4195 7.16327 20.0938 6.21039 19.9761 5.54102H21.0595C21.0595 5.54102 20.8435 7.29614 22.4179 9.02214L22.4397 9.04535C22.0154 8.77844 21.6263 8.46339 21.2808 8.10704ZM26.5 10.7827V14.5068C26.5 14.5068 25.1175 14.4527 24.0943 14.1924C22.6657 13.8284 21.7475 13.27 21.7475 13.27C21.7475 13.27 21.1132 12.8719 21.0619 12.8441V20.5344C21.0619 20.9626 20.9446 22.032 20.5871 22.9239C20.1204 24.0906 19.4001 24.8565 19.2677 25.013C19.2677 25.013 18.3917 26.0483 16.8463 26.7454C15.4533 27.3743 14.2302 27.3583 13.8647 27.3743C13.8647 27.3743 11.7505 27.458 9.848 26.2216C9.43661 25.9491 9.05259 25.6405 8.70093 25.2997L8.71042 25.3065C10.6134 26.5429 12.7271 26.4592 12.7271 26.4592C13.0931 26.4432 14.3162 26.4592 15.7087 25.8303C17.2527 25.1332 18.1301 24.0979 18.1301 24.0979C18.2611 23.9414 18.9847 23.1755 19.4495 22.0083C19.8061 21.1169 19.9243 20.0471 19.9243 19.6189V11.9294C19.9756 11.9577 20.6094 12.3558 20.6094 12.3558C20.6094 12.3558 21.5281 12.9146 22.9567 13.2782C23.9804 13.5385 25.3625 13.5927 25.3625 13.5927V10.6744C25.8353 10.7805 26.2384 10.8091 26.5 10.7827Z" fill="#FB0404"/>
<path d="M9.39458 19.319C9.53132 18.1868 9.99566 17.5529 10.8707 16.9031C12.1227 16.0231 13.6866 16.5209 13.6866 16.5209V13.5676C14.0668 13.5579 14.4472 13.5804 14.8232 13.635V17.4355C14.8232 17.4355 13.2598 16.9377 12.0078 17.8182C11.1332 18.4676 10.668 19.1019 10.5317 20.2341C10.5274 20.8489 10.6428 21.6525 11.1741 22.3473C11.0427 22.28 10.9088 22.2032 10.7724 22.1171C9.60207 21.3312 9.38889 20.1522 9.39458 19.319ZM21.2808 8.10704C20.4195 7.16327 20.0938 6.21039 19.9761 5.54102H21.0595C21.0595 5.54102 20.8435 7.29614 22.4179 9.02214L22.4397 9.04535C22.0154 8.77844 21.6263 8.46339 21.2808 8.10704ZM26.5 10.7827V14.5068C26.5 14.5068 25.1175 14.4527 24.0943 14.1924C22.6657 13.8284 21.7475 13.27 21.7475 13.27C21.7475 13.27 21.1132 12.8719 21.0619 12.8441V20.5344C21.0619 20.9626 20.9446 22.032 20.5871 22.9239C20.1204 24.0906 19.4001 24.8565 19.2677 25.013C19.2677 25.013 18.3917 26.0483 16.8463 26.7454C15.4533 27.3743 14.2302 27.3583 13.8647 27.3743C13.8647 27.3743 11.7505 27.458 9.848 26.2216C9.43661 25.9491 9.05259 25.6405 8.70093 25.2997L8.71042 25.3065C10.6134 26.5429 12.7271 26.4592 12.7271 26.4592C13.0931 26.4432 14.3162 26.4592 15.7087 25.8303C17.2527 25.1332 18.1301 24.0979 18.1301 24.0979C18.2611 23.9414 18.9847 23.1755 19.4495 22.0083C19.8061 21.1169 19.9243 20.0471 19.9243 19.6189V11.9294C19.9756 11.9577 20.6094 12.3558 20.6094 12.3558C20.6094 12.3558 21.5281 12.9146 22.9567 13.2782C23.9804 13.5385 25.3625 13.5927 25.3625 13.5927V10.6744C25.8353 10.7805 26.2384 10.8091 26.5 10.7827Z" fill="white" fill-opacity="0.4"/>
<path d="M25.3628 10.6744V13.5917C25.3628 13.5917 23.9807 13.5376 22.957 13.2773C21.5284 12.9133 20.6097 12.3549 20.6097 12.3549C20.6097 12.3549 19.9759 11.9568 19.9246 11.9285V19.6198C19.9246 20.048 19.8073 21.1178 19.4498 22.0092C18.9831 23.1764 18.2629 23.9423 18.1304 24.0988C18.1304 24.0988 17.254 25.1341 15.709 25.8312C14.3165 26.4601 13.0934 26.4441 12.7274 26.4601C12.7274 26.4601 10.6136 26.5438 8.71072 25.3074L8.70122 25.3006C8.50032 25.1061 8.3112 24.9007 8.13481 24.6854C7.52756 23.945 7.15533 23.0695 7.0618 22.8197C7.06164 22.8186 7.06164 22.8176 7.0618 22.8165C6.91129 22.3824 6.59509 21.3399 6.63829 20.3301C6.71473 18.5486 7.34145 17.4551 7.50715 17.1812C7.94599 16.4341 8.51676 15.7658 9.19405 15.2058C9.79172 14.7226 10.4692 14.3381 11.1986 14.0682C11.9871 13.7512 12.8315 13.5813 13.6864 13.5676V16.5209C13.6864 16.5209 12.1225 16.0249 10.871 16.9031C9.99596 17.5529 9.53162 18.1868 9.39488 19.319C9.38918 20.1522 9.60236 21.3312 10.7717 22.1175C10.9082 22.204 11.0421 22.2808 11.1734 22.3478C11.3777 22.6134 11.6264 22.8447 11.9093 23.0326C13.0517 23.7557 14.0088 23.8062 15.2328 23.3366C16.049 23.0226 16.6633 22.315 16.9482 21.531C17.1272 21.0413 17.1248 20.5485 17.1248 20.0389V5.54102H19.9735C20.0913 6.21039 20.417 7.16327 21.2782 8.10704C21.6237 8.46339 22.0128 8.77844 22.4372 9.04535C22.5625 9.17504 23.2035 9.8162 24.0263 10.2098C24.4517 10.4133 24.9001 10.5692 25.3628 10.6744Z" fill="black"/>
<path d="M5.92822 21.9121V21.9144L5.99891 22.106C5.99079 22.0837 5.96452 22.0159 5.92822 21.9121Z" fill="#0FDB8D"/>
<path d="M5.92822 21.9121V21.9144L5.99891 22.106C5.99079 22.0837 5.96452 22.0159 5.92822 21.9121Z" fill="white" fill-opacity="0.4"/>
<path d="M11.1987 14.0676C10.4693 14.3375 9.79185 14.722 9.19418 15.2052C8.51668 15.7664 7.94605 16.4362 7.50776 17.1847C7.34206 17.4577 6.71535 18.5521 6.63891 20.3336C6.5957 21.3433 6.91191 22.3859 7.06241 22.82C7.06225 22.821 7.06225 22.8221 7.06241 22.8232C7.15737 23.0707 7.52817 23.9462 8.13542 24.6889C8.31181 24.9041 8.50093 25.1096 8.70183 25.3041C8.05812 24.8774 7.48403 24.3615 6.99832 23.7733C6.39629 23.0393 6.02501 22.1729 5.92816 21.9172C5.92804 21.9153 5.92804 21.9135 5.92816 21.9117V21.9085C5.77718 21.4749 5.46002 20.4319 5.50418 19.4208C5.58062 17.6392 6.20733 16.5458 6.37303 16.2718C6.81119 15.5233 7.38183 14.8535 8.05945 14.2924C8.657 13.809 9.33447 13.4245 10.064 13.1547C10.519 12.9738 10.993 12.8403 11.4779 12.7566C12.2086 12.6343 12.9548 12.6237 13.6889 12.7252V13.567C12.8332 13.5804 11.988 13.7503 11.1987 14.0676Z" fill="#0FDB8D"/>
<path d="M11.1987 14.0676C10.4693 14.3375 9.79185 14.722 9.19418 15.2052C8.51668 15.7664 7.94605 16.4362 7.50776 17.1847C7.34206 17.4577 6.71535 18.5521 6.63891 20.3336C6.5957 21.3433 6.91191 22.3859 7.06241 22.82C7.06225 22.821 7.06225 22.8221 7.06241 22.8232C7.15737 23.0707 7.52817 23.9462 8.13542 24.6889C8.31181 24.9041 8.50093 25.1096 8.70183 25.3041C8.05812 24.8774 7.48403 24.3615 6.99832 23.7733C6.39629 23.0393 6.02501 22.1729 5.92816 21.9172C5.92804 21.9153 5.92804 21.9135 5.92816 21.9117V21.9085C5.77718 21.4749 5.46002 20.4319 5.50418 19.4208C5.58062 17.6392 6.20733 16.5458 6.37303 16.2718C6.81119 15.5233 7.38183 14.8535 8.05945 14.2924C8.657 13.809 9.33447 13.4245 10.064 13.1547C10.519 12.9738 10.993 12.8403 11.4779 12.7566C12.2086 12.6343 12.9548 12.6237 13.6889 12.7252V13.567C12.8332 13.5804 11.988 13.7503 11.1987 14.0676Z" fill="white" fill-opacity="0.4"/>
<path d="M19.9761 5.54056H17.1274V20.0389C17.1274 20.5485 17.1274 21.04 16.9507 21.531C16.663 22.3146 16.051 23.0222 15.2354 23.3362C14.0109 23.8076 13.0537 23.7553 11.9119 23.0322C11.6284 22.8451 11.3791 22.6145 11.1741 22.3496C12.1469 22.847 13.0177 22.8383 14.0964 22.4233C14.9116 22.1093 15.5245 21.4017 15.8113 20.6177C15.9907 20.1281 15.9884 19.6352 15.9884 19.126V4.625H19.9219C19.9219 4.625 19.8778 4.9854 19.9761 5.54056ZM25.3629 9.86716V10.674C24.9011 10.5685 24.4535 10.4127 24.0288 10.2094C23.206 9.81574 22.5651 9.17458 22.4397 9.04489C22.5852 9.13641 22.7361 9.21968 22.8917 9.29426C23.8921 9.77297 24.8772 9.91585 25.3629 9.86716Z" fill="#0FDB8D"/>
<path d="M19.9761 5.54056H17.1274V20.0389C17.1274 20.5485 17.1274 21.04 16.9507 21.531C16.663 22.3146 16.051 23.0222 15.2354 23.3362C14.0109 23.8076 13.0537 23.7553 11.9119 23.0322C11.6284 22.8451 11.3791 22.6145 11.1741 22.3496C12.1469 22.847 13.0177 22.8383 14.0964 22.4233C14.9116 22.1093 15.5245 21.4017 15.8113 20.6177C15.9907 20.1281 15.9884 19.6352 15.9884 19.126V4.625H19.9219C19.9219 4.625 19.8778 4.9854 19.9761 5.54056ZM25.3629 9.86716V10.674C24.9011 10.5685 24.4535 10.4127 24.0288 10.2094C23.206 9.81574 22.5651 9.17458 22.4397 9.04489C22.5852 9.13641 22.7361 9.21968 22.8917 9.29426C23.8921 9.77297 24.8772 9.91585 25.3629 9.86716Z" fill="white" fill-opacity="0.4"/>
</svg>
