<svg width="30" height="30" viewBox="0 0 30 30" fill="none" xmlns="http://www.w3.org/2000/svg">
<path d="M19.0625 8.75C19.0625 10.9937 17.2437 12.8125 15 12.8125V14.6875C18.2792 14.6875 20.9375 12.0292 20.9375 8.75H19.0625ZM15 12.8125C12.7563 12.8125 10.9375 10.9937 10.9375 8.75H9.0625C9.0625 12.0292 11.7208 14.6875 15 14.6875V12.8125ZM10.9375 8.75C10.9375 6.50634 12.7563 4.6875 15 4.6875V2.8125C11.7208 2.8125 9.0625 5.47081 9.0625 8.75H10.9375ZM15 4.6875C17.2437 4.6875 19.0625 6.50634 19.0625 8.75H20.9375C20.9375 5.47081 18.2792 2.8125 15 2.8125V4.6875ZM22.8125 21.875C22.8125 22.5367 22.2517 23.3882 20.7679 24.1301C19.3402 24.8439 17.3023 25.3125 15 25.3125V27.1875C17.5302 27.1875 19.8673 26.6767 21.6064 25.8071C23.2895 24.9656 24.6875 23.6295 24.6875 21.875H22.8125ZM15 25.3125C12.6977 25.3125 10.6598 24.8439 9.23208 24.1301C7.7483 23.3882 7.1875 22.5367 7.1875 21.875H5.3125C5.3125 23.6295 6.71045 24.9656 8.39355 25.8071C10.1327 26.6767 12.4698 27.1875 15 27.1875V25.3125ZM7.1875 21.875C7.1875 21.2133 7.7483 20.3618 9.23208 19.6199C10.6598 18.9061 12.6977 18.4375 15 18.4375V16.5625C12.4698 16.5625 10.1327 17.0733 8.39355 17.9429C6.71045 18.7844 5.3125 20.1205 5.3125 21.875H7.1875ZM15 18.4375C17.3023 18.4375 19.3402 18.9061 20.7679 19.6199C22.2517 20.3618 22.8125 21.2133 22.8125 21.875H24.6875C24.6875 20.1205 23.2895 18.7844 21.6064 17.9429C19.8673 17.0733 17.5302 16.5625 15 16.5625V18.4375Z" fill="#333333"/>
</svg>
